<svg width="161" height="714" viewBox="0 0 161 714" fill="none" xmlns="http://www.w3.org/2000/svg">
<mask id="path-1-outside-1_29_8" maskUnits="userSpaceOnUse" x="-5.00003" y="-10" width="171" height="729" fill="black">
<rect fill="white" x="-5.00003" y="-10" width="171" height="729"/>
<path d="M0.499984 599.025C0.499982 558.3 25.7 522.525 79.25 522.525C132.8 522.525 158 558.3 158 599.025L158 713.325L0.499989 713.325L0.499984 599.025ZM124.025 614.325C124.025 583.725 117.5 563.025 79.25 563.025C41 563.025 34.475 583.725 34.475 614.325L34.475 672.825L124.025 672.825L124.025 614.325ZM79.025 268.282C133.7 268.282 160.25 298.207 160.25 367.282C160.25 436.582 133.925 466.282 79.025 466.282L0.499978 466.282L0.499976 425.782L79.025 425.782C101.075 425.782 126.275 419.707 126.275 367.282C126.275 314.857 100.85 308.782 79.025 308.782L0.499971 308.782L0.499969 268.282L79.025 268.282ZM106.25 130.412L0.499967 219.512L0.499965 170.687L72.275 110.162L0.49996 49.6365L0.499958 0.811523L106.25 89.9115L158 89.9115L158 130.412L106.25 130.412Z"/>
</mask>
<path d="M0.499984 599.025C0.499982 558.3 25.7 522.525 79.25 522.525C132.8 522.525 158 558.3 158 599.025L158 713.325L0.499989 713.325L0.499984 599.025ZM124.025 614.325C124.025 583.725 117.5 563.025 79.25 563.025C41 563.025 34.475 583.725 34.475 614.325L34.475 672.825L124.025 672.825L124.025 614.325ZM79.025 268.282C133.7 268.282 160.25 298.207 160.25 367.282C160.25 436.582 133.925 466.282 79.025 466.282L0.499978 466.282L0.499976 425.782L79.025 425.782C101.075 425.782 126.275 419.707 126.275 367.282C126.275 314.857 100.85 308.782 79.025 308.782L0.499971 308.782L0.499969 268.282L79.025 268.282ZM106.25 130.412L0.499967 219.512L0.499965 170.687L72.275 110.162L0.49996 49.6365L0.499958 0.811523L106.25 89.9115L158 89.9115L158 130.412L106.25 130.412Z" fill="#D9D9D9"/>
<path d="M158 713.325L158 718.325L163 718.325L163 713.325L158 713.325ZM0.499988 713.325L-4.50001 713.325L-4.50001 718.325L0.499988 718.325L0.499988 713.325ZM34.475 672.825L29.475 672.825L29.475 677.825L34.475 677.825L34.475 672.825ZM124.025 672.825L124.025 677.825L129.025 677.825L129.025 672.825L124.025 672.825ZM5.49998 599.025C5.49998 579.662 11.4861 561.836 23.4627 548.9C35.3736 536.035 53.6533 527.525 79.25 527.525L79.25 517.525C51.2966 517.525 30.2014 526.902 16.1248 542.106C2.11391 557.239 -4.50002 577.663 -4.50002 599.025L5.49998 599.025ZM79.25 527.525C104.847 527.525 123.126 536.035 135.037 548.9C147.014 561.836 153 579.662 153 599.025L163 599.025C163 577.663 156.386 557.239 142.375 542.106C128.299 526.902 107.203 517.525 79.25 517.525L79.25 527.525ZM153 599.025L153 713.325L163 713.325L163 599.025L153 599.025ZM158 708.325L0.499988 708.325L0.499988 718.325L158 718.325L158 708.325ZM5.49999 713.325L5.49998 599.025L-4.50002 599.025L-4.50001 713.325L5.49999 713.325ZM129.025 614.325C129.025 598.963 127.46 584.694 120.053 574.299C112.338 563.47 99.2402 558.025 79.25 558.025L79.25 568.025C97.5098 568.025 106.799 572.93 111.909 580.101C117.328 587.706 119.025 599.087 119.025 614.325L129.025 614.325ZM79.25 558.025C59.2598 558.025 46.1619 563.47 38.4466 574.299C31.0402 584.694 29.475 598.963 29.475 614.325L39.475 614.325C39.475 599.087 41.1722 587.706 46.5908 580.101C51.7006 572.93 60.9902 568.025 79.25 568.025L79.25 558.025ZM29.475 614.325L29.475 672.825L39.475 672.825L39.475 614.325L29.475 614.325ZM34.475 677.825L124.025 677.825L124.025 667.825L34.475 667.825L34.475 677.825ZM129.025 672.825L129.025 614.325L119.025 614.325L119.025 672.825L129.025 672.825ZM0.499977 466.282L-4.50002 466.282L-4.50002 471.282L0.499978 471.282L0.499977 466.282ZM0.499976 425.782L0.499975 420.782L-4.50002 420.782L-4.50002 425.782L0.499976 425.782ZM0.49997 308.782L-4.50003 308.782L-4.50003 313.782L0.499971 313.782L0.49997 308.782ZM0.499969 268.282L0.499968 263.282L-4.50003 263.282L-4.50003 268.282L0.499969 268.282ZM79.025 273.282C105.457 273.282 124.098 280.484 136.304 295.086C148.676 309.885 155.25 333.225 155.25 367.282L165.25 367.282C165.25 332.264 158.549 306.104 143.977 288.672C129.239 271.042 107.268 263.282 79.025 263.282L79.025 273.282ZM155.25 367.282C155.25 401.464 148.727 424.798 136.388 439.563C124.218 454.127 105.585 461.282 79.025 461.282L79.025 471.282C107.364 471.282 129.344 463.587 144.062 445.976C158.61 428.566 165.25 402.4 165.25 367.282L155.25 367.282ZM79.025 461.282L0.499977 461.282L0.499978 471.282L79.025 471.282L79.025 461.282ZM5.49998 466.282L5.49998 425.782L-4.50002 425.782L-4.50002 466.282L5.49998 466.282ZM0.499976 430.782L79.025 430.782L79.025 420.782L0.499975 420.782L0.499976 430.782ZM79.025 430.782C90.3338 430.782 103.754 429.275 114.246 419.924C124.82 410.499 131.275 394.172 131.275 367.282L121.275 367.282C121.275 392.817 115.13 405.74 107.592 412.459C99.9706 419.252 89.7662 420.782 79.025 420.782L79.025 430.782ZM131.275 367.282C131.275 340.378 124.757 324.055 114.155 314.635C103.641 305.292 90.23 303.782 79.025 303.782L79.025 313.782C89.645 313.782 99.8589 315.309 107.513 322.11C115.081 328.834 121.275 341.761 121.275 367.282L131.275 367.282ZM79.025 303.782L0.49997 303.782L0.499971 313.782L79.025 313.782L79.025 303.782ZM5.49997 308.782L5.49997 268.282L-4.50003 268.282L-4.50003 308.782L5.49997 308.782ZM0.499969 273.282L79.025 273.282L79.025 263.282L0.499968 263.282L0.499969 273.282ZM106.25 130.411L106.25 125.411L104.424 125.411L103.028 126.588L106.25 130.411ZM0.499967 219.512L-4.50003 219.512L-4.50003 230.262L3.72165 223.335L0.499967 219.512ZM0.499964 170.687L-2.72329 166.864L-4.50004 168.362L-4.50004 170.687L0.499964 170.687ZM72.275 110.161L75.4982 113.984L80.0311 110.161L75.4982 106.339L72.275 110.161ZM0.499959 49.6365L-4.50004 49.6365L-4.50004 51.9606L-2.7233 53.4589L0.499959 49.6365ZM0.499957 0.811521L3.72164 -3.01221L-4.50004 -9.93939L-4.50004 0.811522L0.499957 0.811521ZM106.25 89.9115L103.028 93.7352L104.424 94.9115L106.25 94.9115L106.25 89.9115ZM158 89.9115L163 89.9115L163 84.9115L158 84.9115L158 89.9115ZM158 130.411L158 135.411L163 135.411L163 130.411L158 130.411ZM103.028 126.588L-2.72171 215.688L3.72165 223.335L109.472 134.235L103.028 126.588ZM5.49997 219.512L5.49996 170.687L-4.50004 170.687L-4.50003 219.512L5.49997 219.512ZM3.72323 174.509L75.4982 113.984L69.0517 106.339L-2.72329 166.864L3.72323 174.509ZM75.4982 106.339L3.72322 45.8141L-2.7233 53.4589L69.0517 113.984L75.4982 106.339ZM5.49996 49.6365L5.49996 0.811521L-4.50004 0.811522L-4.50004 49.6365L5.49996 49.6365ZM-2.72172 4.63525L103.028 93.7352L109.472 86.0878L3.72164 -3.01221L-2.72172 4.63525ZM106.25 94.9115L158 94.9115L158 84.9115L106.25 84.9115L106.25 94.9115ZM153 89.9115L153 130.411L163 130.411L163 89.9115L153 89.9115ZM158 125.411L106.25 125.411L106.25 135.411L158 135.411L158 125.411Z" fill="white" mask="url(#path-1-outside-1_29_8)"/>
</svg>
