<svg width="258" height="45" viewBox="0 0 258 45" fill="none" xmlns="http://www.w3.org/2000/svg">
<g clip-path="url(#clip0_1811_270)">
<path d="M47.0339 16.6024C42.7335 16.6024 40.1583 19.2024 40.1583 23.5524V33.1524H43.0585V23.5524C43.0585 20.7774 44.4337 19.3274 47.0339 19.3274C49.6341 19.3274 51.0092 20.8024 51.0092 23.5524V24.1774H53.8594V23.6024C53.8594 19.2274 51.3092 16.6024 47.0339 16.6024Z" fill="#5FA8DC"/>
<path d="M65.3102 16.6024C62.81 16.6024 60.6848 17.4024 59.0597 19.0274C57.4596 20.6274 56.6345 22.6774 56.6345 25.1024C56.6345 27.5524 57.4596 29.6024 59.0597 31.2024C60.6848 32.7774 62.785 33.5774 65.3102 33.5774C68.9105 33.5774 71.9357 31.6774 73.2358 28.6274L73.4858 28.0774H70.3606L70.2356 28.2774C69.2855 29.9774 67.6354 30.8274 65.3102 30.8274C62.31 30.8274 60.0848 28.9774 59.6348 26.1774H73.9109V25.0774C73.9109 22.6524 73.0858 20.6274 71.4857 19.0024C69.8855 17.4274 67.8104 16.6024 65.3102 16.6024ZM59.7348 23.5024C60.3348 20.9524 62.485 19.3274 65.3102 19.3274C68.1104 19.3274 70.2606 20.9524 70.8606 23.5024H59.7348Z" fill="#5FA8DC"/>
<path d="M85.3368 16.6024C82.8366 16.6024 80.7114 17.4024 79.0863 19.0274C77.4862 20.6274 76.6611 22.6774 76.6611 25.1024C76.6611 27.6274 77.4862 29.7024 79.0863 31.2774C80.6864 32.8274 82.6866 33.6024 85.0118 33.6024C87.637 33.6024 89.9122 32.4774 91.2373 30.6024V33.1774H93.9625V25.2024C93.9625 22.7024 93.1374 20.6274 91.5373 19.0024C89.9872 17.4024 87.887 16.6024 85.3368 16.6024ZM89.5121 29.2024C88.412 30.3024 87.0619 30.8274 85.3618 30.8274C83.6617 30.8274 82.2866 30.3024 81.2115 29.2024C80.1614 28.1524 79.6114 26.7524 79.6114 25.0774C79.6114 23.4024 80.1364 22.0024 81.2115 20.9524C82.3116 19.8524 83.6617 19.3274 85.3618 19.3274C87.0619 19.3274 88.437 19.8524 89.5121 20.9524C90.5622 22.0024 91.1122 23.4024 91.1122 25.0774C91.0872 26.7774 90.5622 28.1524 89.5121 29.2024Z" fill="#5FA8DC"/>
<path d="M114.439 16.6024C111.989 16.6024 110.014 17.6774 108.914 19.5774C107.764 17.6524 105.838 16.6024 103.363 16.6024C99.2879 16.6024 96.7377 19.3524 96.7377 23.7774V33.1524H99.6379V23.7774C99.6379 20.9524 101.063 19.3274 103.513 19.3274C105.988 19.3274 107.463 20.9774 107.463 23.7774V33.1524H110.364V23.7774C110.364 21.0024 111.839 19.3274 114.289 19.3274C116.764 19.3274 118.164 20.9524 118.164 23.7774V33.1524H121.065V23.7774C121.065 19.3524 118.514 16.6024 114.439 16.6024Z" fill="#5FA8DC"/>
<path d="M34.1828 18.0524L16.9315 7.92743C13.4312 5.87743 9.00586 8.40243 9.00586 12.4774V32.7524C9.00586 36.8274 13.4312 39.3524 16.9315 37.3024L34.1828 27.1774C37.6581 25.1024 37.6581 20.1024 34.1828 18.0524Z" fill="#5FA8DC"/>
<path d="M15.6313 35.0774L19.5816 32.7524L24.757 29.7274C25.7571 29.1274 25.8321 27.7274 24.882 27.0274L23.882 26.3024L14.9563 19.8024V14.7774C14.9563 14.2774 15.5063 13.9524 15.9313 14.2274L29.2324 22.0524C29.6574 22.3024 29.6574 22.9274 29.2324 23.1774L27.4822 24.2024V28.1524L27.5322 28.1274L32.8827 24.9774C34.0827 24.2524 34.2328 23.1024 34.2328 22.6274C34.2328 22.1524 34.1077 21.0024 32.8827 20.2774L15.6313 10.1524C14.4062 9.42744 13.3061 9.90244 12.9061 10.1274C12.5061 10.3524 11.531 11.0774 11.531 12.4774V20.1524V22.1774V22.2024L15.0813 24.7524L20.1817 28.4524L18.0315 29.7024L15.9063 30.9524C15.4813 31.2024 14.9313 30.9024 14.9313 30.4024V28.2024L11.531 25.7524V32.7024C11.531 34.1274 12.4811 34.8274 12.9061 35.0524C13.3311 35.3274 14.4062 35.8024 15.6313 35.0774Z" fill="white"/>
<path d="M138.741 32.7524H124.465V12.8024H126.665V30.7274H138.741V32.7524Z" fill="#595A5C"/>
<path d="M138.741 33.1774H124.465C124.24 33.1774 124.04 32.9774 124.04 32.7524V12.8024C124.04 12.5774 124.24 12.3774 124.465 12.3774H126.665C126.89 12.3774 127.09 12.5774 127.09 12.8024V30.3024H138.741C138.966 30.3024 139.166 30.5024 139.166 30.7274V32.7524C139.166 32.9774 138.966 33.1774 138.741 33.1774ZM124.89 32.3274H138.316V31.1524H126.665C126.44 31.1524 126.24 30.9524 126.24 30.7274V13.2274H124.89V32.3274Z" fill="#595A5C"/>
<path d="M155.967 32.7525H154.067V29.1775H154.017C153.017 31.6275 150.592 33.1525 147.592 33.1525C145.391 33.1525 143.541 32.4275 142.041 30.9775C140.541 29.5025 139.791 27.6025 139.791 25.2025C139.791 22.9275 140.566 21.0275 142.041 19.5275C143.566 18.0275 145.516 17.2775 147.892 17.2775C150.267 17.2775 152.217 18.0025 153.717 19.5025C155.217 21.0025 155.967 22.9275 155.967 25.3025V32.7525ZM147.892 31.2525C149.692 31.2525 151.117 30.6775 152.242 29.5525C153.367 28.4275 153.917 26.9525 153.917 25.2275C153.917 23.5025 153.367 22.0275 152.242 20.9025C151.117 19.7775 149.692 19.2025 147.892 19.2025C146.092 19.2025 144.666 19.7775 143.541 20.9025C142.416 22.0275 141.866 23.5025 141.866 25.2275C141.866 26.9525 142.416 28.4275 143.541 29.5525C144.666 30.6775 146.092 31.2525 147.892 31.2525Z" fill="#595A5C"/>
<path d="M147.592 33.5774C145.291 33.5774 143.316 32.8024 141.741 31.3024C140.166 29.7524 139.366 27.7024 139.366 25.2274C139.366 22.8524 140.166 20.8274 141.741 19.2524C143.366 17.6774 145.416 16.8774 147.892 16.8774C150.392 16.8774 152.467 17.6774 154.017 19.2274C155.592 20.8024 156.392 22.8524 156.392 25.3274V32.7774C156.392 33.0024 156.192 33.2024 155.967 33.2024H154.067C153.842 33.2024 153.642 33.0024 153.642 32.7774V30.7274C152.342 32.5024 150.142 33.5774 147.592 33.5774ZM147.892 17.7024C145.641 17.7024 143.766 18.4274 142.341 19.8274C140.916 21.2274 140.216 23.0524 140.216 25.2024C140.216 27.4524 140.941 29.2774 142.341 30.6524C143.766 32.0024 145.516 32.7024 147.592 32.7024C150.417 32.7024 152.692 31.3274 153.642 29.0024C153.717 28.8524 153.867 28.7524 154.042 28.7524H154.092C154.317 28.7524 154.517 28.9524 154.517 29.1774V32.3274H155.567V25.3024C155.567 23.0274 154.867 21.2524 153.442 19.8024C152.017 18.4274 150.167 17.7024 147.892 17.7024ZM147.892 31.6774C146.016 31.6774 144.441 31.0524 143.241 29.8524C142.041 28.6524 141.441 27.1024 141.441 25.2274C141.441 23.3524 142.041 21.8024 143.241 20.6024C144.466 19.3774 146.016 18.7774 147.892 18.7774C149.767 18.7774 151.342 19.4024 152.542 20.6024C153.742 21.8024 154.342 23.3524 154.342 25.2274C154.342 27.1024 153.742 28.6524 152.542 29.8524C151.342 31.0524 149.767 31.6774 147.892 31.6774ZM147.892 19.6024C146.216 19.6024 144.891 20.1274 143.841 21.1774C142.816 22.2024 142.291 23.5524 142.291 25.2024C142.291 26.8524 142.816 28.2024 143.841 29.2274C144.916 30.3024 146.241 30.8024 147.892 30.8024C149.567 30.8024 150.892 30.2774 151.942 29.2274C152.967 28.2024 153.492 26.8524 153.492 25.2024C153.492 23.5524 152.967 22.2024 151.942 21.1774C150.892 20.1274 149.567 19.6024 147.892 19.6024Z" fill="#595A5C"/>
<path d="M171.243 17.6774H173.294V25.5524C173.294 30.4274 170.393 33.1524 165.843 33.1524C161.293 33.1524 158.392 30.4274 158.392 25.5524V17.6774H160.443V25.5524C160.443 29.1774 162.518 31.2524 165.843 31.2524C169.168 31.2524 171.243 29.1774 171.243 25.5524V17.6774Z" fill="#595A5C"/>
<path d="M165.843 33.5774C160.918 33.5774 157.967 30.5774 157.967 25.5524V17.6774C157.967 17.4524 158.167 17.2524 158.392 17.2524H160.443C160.668 17.2524 160.868 17.4524 160.868 17.6774V25.5524C160.868 28.9024 162.693 30.8274 165.843 30.8274C168.993 30.8274 170.818 28.9024 170.818 25.5524V17.6774C170.818 17.4524 171.018 17.2524 171.243 17.2524H173.294C173.519 17.2524 173.719 17.4524 173.719 17.6774V25.5524C173.719 30.5774 170.768 33.5774 165.843 33.5774ZM158.842 18.1024V25.5524C158.842 30.1024 161.393 32.7274 165.868 32.7274C170.343 32.7274 172.894 30.1024 172.894 25.5524V18.1024H171.693V25.5524C171.693 29.3274 169.468 31.6774 165.868 31.6774C162.268 31.6774 160.043 29.3274 160.043 25.5524V18.1024H158.842Z" fill="#595A5C"/>
<path d="M190.62 32.7524H188.57V24.8774C188.57 21.2274 186.495 19.1774 183.169 19.1774C179.844 19.1774 177.769 21.2274 177.769 24.8774V32.7524H175.719V24.8774C175.719 20.0024 178.619 17.2774 183.169 17.2774C187.72 17.2774 190.62 20.0024 190.62 24.8774V32.7524Z" fill="#595A5C"/>
<path d="M190.62 33.1774H188.57C188.345 33.1774 188.145 32.9774 188.145 32.7524V24.8774C188.145 21.5274 186.32 19.6024 183.169 19.6024C180.019 19.6024 178.194 21.5274 178.194 24.8774V32.7524C178.194 32.9774 177.994 33.1774 177.769 33.1774H175.719C175.494 33.1774 175.294 32.9774 175.294 32.7524V24.8774C175.294 19.8524 178.244 16.8524 183.169 16.8524C188.095 16.8524 191.045 19.8524 191.045 24.8774V32.7524C191.045 32.9774 190.845 33.1774 190.62 33.1774ZM188.995 32.3274H190.195V24.8774C190.195 20.3274 187.645 17.7024 183.169 17.7024C178.694 17.7024 176.144 20.3274 176.144 24.8774V32.3274H177.344V24.8774C177.344 21.0524 179.519 18.7524 183.169 18.7524C186.82 18.7524 188.995 21.0524 188.995 24.8774V32.3274Z" fill="#595A5C"/>
<path d="M206.221 22.9024C205.396 20.6274 203.271 19.1774 200.546 19.1774C198.746 19.1774 197.32 19.7524 196.195 20.8774C195.07 22.0024 194.52 23.4774 194.52 25.2024C194.52 26.9274 195.07 28.4024 196.195 29.5274C197.32 30.6524 198.746 31.2274 200.546 31.2274C203.271 31.2274 205.396 29.8024 206.221 27.5024H208.296C207.846 29.1774 206.921 30.5524 205.521 31.5774C204.146 32.5774 202.471 33.1024 200.546 33.1024C198.171 33.1024 196.22 32.3774 194.695 30.8774C193.195 29.3774 192.445 27.4524 192.445 25.1774C192.445 22.9024 193.195 21.0024 194.695 19.5024C196.22 18.0024 198.171 17.2524 200.546 17.2524C202.471 17.2524 204.146 17.7774 205.521 18.8024C206.921 19.8024 207.846 21.1774 208.296 22.8524H206.221V22.9024Z" fill="#595A5C"/>
<path d="M200.571 33.5774C198.071 33.5774 196.02 32.7774 194.42 31.2274C192.845 29.6524 192.045 27.6274 192.045 25.2274C192.045 22.8524 192.845 20.8274 194.42 19.2524C196.045 17.6774 198.096 16.8774 200.571 16.8774C202.596 16.8774 204.346 17.4274 205.796 18.5274C207.246 19.5774 208.221 21.0024 208.721 22.8024C208.746 22.9274 208.721 23.0774 208.646 23.1774C208.571 23.2774 208.446 23.3524 208.321 23.3524H206.246C206.071 23.3524 205.921 23.2524 205.846 23.0774C205.071 20.9274 203.096 19.6274 200.571 19.6274C198.896 19.6274 197.57 20.1524 196.52 21.2024C195.495 22.2274 194.97 23.5774 194.97 25.2274C194.97 26.8774 195.495 28.2274 196.52 29.2524C197.595 30.3274 198.921 30.8274 200.571 30.8274C203.096 30.8274 205.071 29.5524 205.846 27.3774C205.896 27.2024 206.071 27.1024 206.246 27.1024H208.321C208.446 27.1024 208.571 27.1524 208.646 27.2774C208.721 27.3774 208.746 27.5274 208.721 27.6524C208.246 29.4274 207.246 30.8774 205.796 31.9774C204.321 33.0274 202.571 33.5774 200.571 33.5774ZM200.571 17.7024C198.321 17.7024 196.445 18.4274 195.02 19.8274C193.595 21.2274 192.895 23.0524 192.895 25.2024C192.895 27.3774 193.62 29.2024 195.02 30.6024C196.47 32.0274 198.271 32.7024 200.571 32.7024C202.396 32.7024 203.996 32.2274 205.296 31.2524C206.446 30.4024 207.271 29.2774 207.746 27.9274H206.521C205.571 30.2274 203.296 31.6524 200.571 31.6524C198.696 31.6524 197.12 31.0274 195.92 29.8274C194.72 28.6274 194.12 27.0774 194.12 25.2024C194.12 23.3274 194.72 21.7774 195.92 20.5774C197.145 19.3524 198.696 18.7524 200.571 18.7524C203.321 18.7524 205.571 20.1774 206.521 22.4774H207.721C207.246 21.1274 206.421 20.0024 205.271 19.1774C203.971 18.2024 202.396 17.7024 200.571 17.7024Z" fill="#595A5C"/>
<path d="M212.722 24.8774V32.7524H210.672V11.1024H212.722V20.5024H212.772C213.772 18.4524 215.822 17.3024 218.422 17.3024C220.522 17.3024 222.272 17.9524 223.573 19.2524C224.873 20.5274 225.548 22.4274 225.548 24.9024V32.7774H223.523V24.8774C223.523 21.2274 221.447 19.1774 218.122 19.1774C214.822 19.1774 212.722 21.2524 212.722 24.8774Z" fill="#595A5C"/>
<path d="M225.573 33.1774H223.522C223.297 33.1774 223.097 32.9774 223.097 32.7524V24.8774C223.097 21.5274 221.272 19.6024 218.122 19.6024C214.997 19.6024 213.147 21.5774 213.147 24.8774V32.7524C213.147 32.9774 212.947 33.1774 212.722 33.1774H210.671C210.446 33.1774 210.246 32.9774 210.246 32.7524V11.1024C210.246 10.8774 210.446 10.6774 210.671 10.6774H212.722C212.947 10.6774 213.147 10.8774 213.147 11.1024V19.1524C214.347 17.6774 216.197 16.8774 218.422 16.8774C220.672 16.8774 222.497 17.5774 223.873 18.9524C225.273 20.3274 225.973 22.3274 225.973 24.9024V32.7774C225.998 32.9774 225.798 33.1774 225.573 33.1774ZM223.948 32.3274H225.148V24.8774C225.148 22.5274 224.523 20.7274 223.297 19.5274C222.072 18.3024 220.447 17.7024 218.447 17.7024C216.022 17.7024 214.122 18.7774 213.172 20.6774C213.097 20.8274 212.947 20.9024 212.797 20.9024H212.747C212.522 20.9024 212.322 20.7024 212.322 20.4774V11.5274H211.122V32.3274H212.322V24.8774C212.322 21.1024 214.547 18.7524 218.147 18.7524C221.797 18.7524 223.973 21.0524 223.973 24.8774V32.3274H223.948Z" fill="#595A5C"/>
<path d="M243.549 25.8775H229.498C229.773 29.0525 232.173 31.2525 235.498 31.2525C237.949 31.2525 239.674 30.3275 240.674 28.5275H242.899C241.699 31.3275 238.924 33.1275 235.498 33.1275C233.123 33.1275 231.173 32.4025 229.648 30.9025C228.148 29.4025 227.398 27.4775 227.398 25.2025C227.398 22.9275 228.148 21.0275 229.648 19.5275C231.173 18.0275 233.123 17.2775 235.498 17.2775C237.849 17.2775 239.799 18.0525 241.299 19.5275C242.799 21.0275 243.549 22.9025 243.549 25.2025V25.8775ZM229.573 24.0025V24.0525H241.449V24.0025C240.949 21.1025 238.674 19.1775 235.523 19.1775C232.348 19.1775 230.048 21.1025 229.573 24.0025Z" fill="#595A5C"/>
<path d="M235.498 33.5774C232.998 33.5774 230.948 32.7774 229.348 31.2274C227.773 29.6524 226.973 27.6274 226.973 25.2274C226.973 22.8524 227.773 20.8274 229.348 19.2524C230.973 17.6774 233.023 16.8774 235.498 16.8774C237.974 16.8774 240.024 17.6774 241.599 19.2524C243.174 20.8274 243.974 22.8524 243.974 25.2274V25.9024C243.974 26.1274 243.774 26.3274 243.549 26.3274H229.973C230.423 29.0524 232.573 30.8524 235.498 30.8524C237.774 30.8524 239.399 30.0024 240.324 28.3524C240.399 28.2274 240.549 28.1274 240.699 28.1274H242.924C243.074 28.1274 243.199 28.2024 243.274 28.3274C243.349 28.4524 243.374 28.6024 243.299 28.7274C242.049 31.7024 239.049 33.5774 235.498 33.5774ZM235.498 17.7024C233.248 17.7024 231.373 18.4274 229.948 19.8274C228.523 21.2274 227.823 23.0524 227.823 25.2024C227.823 27.3774 228.548 29.2024 229.948 30.6024C231.398 32.0274 233.198 32.7024 235.498 32.7024C238.449 32.7024 240.974 31.2774 242.249 28.9524H240.924C239.824 30.7524 237.999 31.6774 235.498 31.6774C231.998 31.6774 229.373 29.3024 229.073 25.9274C229.073 25.8024 229.098 25.7024 229.173 25.6024C229.248 25.5274 229.373 25.4774 229.473 25.4774H243.099V25.2274C243.099 23.0774 242.374 21.2774 240.974 19.8524C239.599 18.4274 237.749 17.7024 235.498 17.7024ZM241.424 24.4774H229.548C229.323 24.4774 229.123 24.2774 229.123 24.0524V24.0024C229.123 23.9774 229.123 23.9524 229.123 23.9274C229.648 20.7774 232.148 18.7524 235.498 18.7524C238.824 18.7524 241.299 20.7774 241.824 23.9274C241.824 23.9524 241.824 23.9774 241.824 24.0024V24.0524C241.849 24.3024 241.649 24.4774 241.424 24.4774ZM230.073 23.6274H240.924C240.324 21.1524 238.249 19.6024 235.523 19.6024C232.773 19.6024 230.673 21.1774 230.073 23.6274Z" fill="#595A5C"/>
<path d="M258.049 23.9274H256.024V23.7024C256.024 20.6524 254.399 19.1524 251.724 19.1524C249.049 19.1524 247.424 20.6524 247.424 23.7024V32.7274H245.374V23.7274C245.374 19.5524 247.849 17.3024 251.724 17.3024C255.599 17.3024 258.049 19.5274 258.049 23.7774V23.9274Z" fill="#595A5C"/>
<path d="M247.424 33.1774H245.374C245.149 33.1774 244.949 32.9774 244.949 32.7524V23.7274C244.949 19.4274 247.474 16.8774 251.725 16.8774C255.95 16.8774 258.45 19.4524 258.45 23.7524V23.9274C258.45 24.1524 258.25 24.3524 258.025 24.3524H256C255.775 24.3524 255.575 24.1524 255.575 23.9274V23.7024C255.575 21.0024 254.225 19.5774 251.7 19.5774C249.174 19.5774 247.824 21.0024 247.824 23.7024V32.7274C247.849 32.9774 247.674 33.1774 247.424 33.1774ZM245.824 32.3274H247.024V23.7274C247.024 20.5774 248.749 18.7524 251.75 18.7524C254.675 18.7524 256.4 20.4774 256.475 23.5024H257.65C257.575 19.7524 255.475 17.7024 251.75 17.7024C247.974 17.7024 245.824 19.9024 245.824 23.7274V32.3274Z" fill="#595A5C"/>
</g>
<defs>
<clipPath id="clip0_1811_270">
<rect width="257.995" height="45" fill="white" transform="translate(0.00512695)"/>
</clipPath>
</defs>
</svg>
